# xmcd
# Copyright (C) 1995-1998 Ti Kan
#
# Track frame offsets:
#       150
#       12891
#       26874
#       40931
#       54705
#       68300
#       84972
#       98638
#       112381
#       123391
#       137644
#       150624
#       164398
#       176543
#       187584
#       200581
#       210617
#       227889
#       245491
#       256755
#       273803
#
# Disc length: 3849 seconds
#
# Revision: 0
# Processed by: cddbd v1.5.2PL0 Copyright (c) Steve Scherf et al.
# Submitted via: CD-Transfer v1.0
#
DISCID=160f0715
DTITLE=Alpenland 070513 - 
DYEAR=1900
DGENRE=
TTITLE0=13.05.2007 - 01
TTITLE1=13.05.2007 - 02
TTITLE2=13.05.2007 - 03
TTITLE3=13.05.2007 - 04
TTITLE4=13.05.2007 - 05
TTITLE5=13.05.2007 - 06
TTITLE6=13.05.2007 - 07
TTITLE7=13.05.2007 - 08
TTITLE8=13.05.2007 - 09
TTITLE9=13.05.2007 - 10
TTITLE10=13.05.2007 - 11
TTITLE11=13.05.2007 - 12
TTITLE12=13.05.2007 - 13
TTITLE13=13.05.2007 - 14
TTITLE14=13.05.2007 - 15
TTITLE15=13.05.2007 - 16
TTITLE16=13.05.2007 - 17
TTITLE17=13.05.2007 - 18
TTITLE18=13.05.2007 - 19
TTITLE19=13.05.2007 - 20
TTITLE20=13.05.2007 - 21
EXTD=
EXTT0=
EXTT1=
EXTT2=
EXTT3=
EXTT4=
EXTT5=
EXTT6=
EXTT7=
EXTT8=
EXTT9=
EXTT10=
EXTT11=
EXTT12=
EXTT13=
EXTT14=
EXTT15=
EXTT16=
EXTT17=
EXTT18=
EXTT19=
EXTT20=
PLAYORDER=
